<?xml version="1.0" encoding="UTF-8" standalone="no" ?>
<!DOCTYPE svg PUBLIC "-//W3C//DTD SVG 1.1//EN" "http://www.w3.org/Graphics/SVG/1.1/DTD/svg11.dtd">
<svg xmlns="http://www.w3.org/2000/svg" xmlns:xlink="http://www.w3.org/1999/xlink" version="1.1" width="1080" height="1080" viewBox="0 0 1080 1080" xml:space="preserve">
<desc>Created with Fabric.js 5.2.4</desc>
<defs>
</defs>
<rect x="0" y="0" width="100%" height="100%" fill="transparent"></rect>
<g transform="matrix(1 0 0 1 540 540)" id="01dbac73-066b-4e35-8c62-1459d77b3ec5"  >
</g>
<g transform="matrix(1 0 0 1 540 540)" id="d59997b3-d39f-4ba2-b324-202f141e6db9"  >
<rect style="stroke: none; stroke-width: 1; stroke-dasharray: none; stroke-linecap: butt; stroke-dashoffset: 0; stroke-linejoin: miter; stroke-miterlimit: 4; fill: rgb(255,255,255); fill-rule: nonzero; opacity: 1; visibility: hidden;" vector-effect="non-scaling-stroke"  x="-540" y="-540" rx="0" ry="0" width="1080" height="1080" />
</g>
<g transform="matrix(0 0 0 0 0 0)"  >
<g style=""   >
</g>
</g>
<g transform="matrix(0.98 0 0 1.06 538.36 447.78)"  >
<g style="" vector-effect="non-scaling-stroke"   >
		<g transform="matrix(1 0 0 1 -494.75 -0.91)"  >
<path style="stroke: none; stroke-width: 1; stroke-dasharray: none; stroke-linecap: butt; stroke-dashoffset: 0; stroke-linejoin: miter; stroke-miterlimit: 4; fill: rgb(131,166,100); fill-rule: evenodd; opacity: 0.57;" vector-effect="non-scaling-stroke"  transform=" translate(-84.98, -109.09)" d="M 99.5 130.5 C 98.5084 130.328 97.8417 130.662 97.5 131.5 C 93.3452 131.872 89.3452 132.872 85.5 134.5 C 81.392 143.049 77.5586 151.716 74 160.5 C 72.4597 164.419 70.2931 167.919 67.5 171 C 62.5768 171.955 59.0768 170.121 57 165.5 C 57.0105 161.775 57.6772 158.108 59 154.5 C 59.3768 153.058 60.2101 152.058 61.5 151.5 C 65.6727 139.487 70.6727 127.82 76.5 116.5 C 84.6164 115.999 92.6164 115.166 100.5 114 C 92.4554 114.61 84.4554 114.277 76.5 113 C 75.3975 106.837 75.2308 100.671 76 94.5 C 70.3631 98.2697 64.1964 99.7697 57.5 99 C 51.7999 92.4379 46.9666 85.2712 43 77.5 C 42.5575 71.9203 45.2241 68.5869 51 67.5 C 54.8333 73.3333 58.6667 79.1667 62.5 85 C 64.5527 85.3247 66.5527 84.9913 68.5 84 C 73.4203 81.8043 78.4203 79.8043 83.5 78 C 75.316 72.3139 74.6494 65.9806 81.5 59 C 92.0407 55.6816 97.2074 59.5149 97 70.5 C 95.8333 74.3333 93.3333 76.8333 89.5 78 C 91.1667 78.6667 92.8333 78.6667 94.5 78 C 100.717 67.1197 107.717 56.7863 115.5 47 C 118.157 46.8253 120.824 46.9919 123.5 47.5 C 123.699 50.941 123.199 54.2744 122 57.5 C 115.069 68.3662 108.402 79.3662 102 90.5 C 101.333 97.5 101.333 104.5 102 111.5 C 106.027 108.931 110.361 106.931 115 105.5 C 117.499 106.083 119.499 107.416 121 109.5 C 124.446 119.608 126.446 129.941 127 140.5 C 124.166 144.417 120.666 145.251 116.5 143 C 113.511 137.699 111.511 132.033 110.5 126 C 109.5 125.333 108.5 125.333 107.5 126 C 104.809 127.605 102.142 129.105 99.5 130.5 Z" stroke-linecap="round" />
</g>
		<g transform="matrix(1 0 0 1 -496.48 -29.8)"  >
<path style="stroke: none; stroke-width: 1; stroke-dasharray: none; stroke-linecap: butt; stroke-dashoffset: 0; stroke-linejoin: miter; stroke-miterlimit: 4; fill: rgb(131,166,100); fill-rule: evenodd; opacity: 1;" vector-effect="non-scaling-stroke"  transform=" translate(-83.25, -80.2)" d="M 115.5 48.5 C 117.806 48.9926 120.139 49.3259 122.5 49.5 C 122.135 52.6249 121.302 55.6249 120 58.5 C 113.416 68.6663 107.082 78.9997 101 89.5 C 100.5 96.8258 100.334 104.159 100.5 111.5 C 92.6897 112.035 85.0231 112.035 77.5 111.5 C 77.6662 105.491 77.4995 99.4908 77 93.5 C 76.6667 93.1667 76.3333 92.8333 76 92.5 C 70.5548 95.7606 64.7214 97.5939 58.5 98 C 51.8584 90.7402 47.0251 82.5735 44 73.5 C 45.828 71.9186 47.828 70.5853 50 69.5 C 54.28 75.7556 58.78 81.7556 63.5 87.5 C 73.5902 82.5806 84.2568 79.7473 95.5 79 C 102.053 68.7194 108.719 58.5527 115.5 48.5 Z" stroke-linecap="round" />
</g>
		<g transform="matrix(1 0 0 1 -492.73 -42.43)"  >
<path style="stroke: none; stroke-width: 1; stroke-dasharray: none; stroke-linecap: butt; stroke-dashoffset: 0; stroke-linejoin: miter; stroke-miterlimit: 4; fill: rgb(131,166,100); fill-rule: evenodd; opacity: 1;" vector-effect="non-scaling-stroke"  transform=" translate(-87, -67.57)" d="M 85.5 58.5 C 91.5891 58.7556 94.9224 61.9222 95.5 68 C 95.5924 70.8139 94.5924 73.1473 92.5 75 C 84.9354 78.6874 80.2687 76.1874 78.5 67.5 C 78.9974 63.0097 81.3307 60.0097 85.5 58.5 Z" stroke-linecap="round" />
</g>
		<g transform="matrix(1 0 0 1 202.12 -2.55)"  >
<path style="stroke: none; stroke-width: 1; stroke-dasharray: none; stroke-linecap: butt; stroke-dashoffset: 0; stroke-linejoin: miter; stroke-miterlimit: 4; fill: rgb(131,166,100); fill-rule: evenodd; opacity: 0.59;" vector-effect="non-scaling-stroke"  transform=" translate(-781.85, -107.45)" d="M 782.5 68.5 C 812.672 67.8625 823.172 81.8625 814 110.5 C 806.866 117.145 798.366 120.645 788.5 121 C 795.446 123.806 802.112 127.139 808.5 131 C 810.049 135.606 812.049 140.106 814.5 144.5 C 796.356 141.377 780.523 133.377 767 120.5 C 765.335 126.799 765.002 133.132 766 139.5 C 764.581 141.336 763.414 143.336 762.5 145.5 C 761.998 146.521 761.332 146.688 760.5 146 C 756.262 143.275 753.929 139.442 753.5 134.5 C 754.272 122.519 754.772 110.519 755 98.5 C 755.737 94.7934 756.571 91.1268 757.5 87.5 C 759.936 87.317 762.103 87.9837 764 89.5 C 765.584 88.1387 767.418 87.472 769.5 87.5 C 768.863 95.1898 768.363 102.856 768 110.5 C 768.5 109.333 769.333 108.5 770.5 108 C 778.5 107.667 786.5 107.333 794.5 107 C 804.823 103.811 807.323 97.3106 802 87.5 C 800.681 85.5125 798.848 84.3459 796.5 84 C 792.702 83.2281 788.869 82.7281 785 82.5 C 775.346 83.62 765.68 84.62 756 85.5 C 750.34 84.5249 750.506 83.0249 756.5 81 C 753.274 79.8011 749.941 79.3011 746.5 79.5 C 746.5 78.5 746.5 77.5 746.5 76.5 C 758.162 71.9029 770.162 69.2362 782.5 68.5 Z" stroke-linecap="round" />
</g>
		<g transform="matrix(1 0 0 1 450.23 -3)"  >
<path style="stroke: none; stroke-width: 1; stroke-dasharray: none; stroke-linecap: butt; stroke-dashoffset: 0; stroke-linejoin: miter; stroke-miterlimit: 4; fill: rgb(131,166,100); fill-rule: evenodd; opacity: 0.55;" vector-effect="non-scaling-stroke"  transform=" translate(-1029.96, -107)" d="M 1023.5 69.5 C 1027.42 70.5302 1031.26 71.8635 1035 73.5 C 1038.92 96.2373 1038.09 118.737 1032.5 141 C 1030.06 142.303 1027.56 143.47 1025 144.5 C 1024.23 144.355 1023.56 144.022 1023 143.5 C 1022.83 141 1022.67 138.5 1022.5 136 C 1025.07 117.686 1025.07 99.3523 1022.5 81 C 1022.62 77.132 1022.95 73.2987 1023.5 69.5 Z" stroke-linecap="round" />
</g>
		<g transform="matrix(1 0 0 1 -372.23 -0.53)"  >
<path style="stroke: none; stroke-width: 1; stroke-dasharray: none; stroke-linecap: butt; stroke-dashoffset: 0; stroke-linejoin: miter; stroke-miterlimit: 4; fill: rgb(131,166,100); fill-rule: evenodd; opacity: 0.57;" vector-effect="non-scaling-stroke"  transform=" translate(-207.5, -109.47)" d="M 208.5 70.5 C 219.863 70.8446 227.863 76.1779 232.5 86.5 C 230.405 87.2294 228.572 86.5628 227 84.5 C 228.091 87.3275 228.425 90.3275 228 93.5 C 222.753 90.7936 217.586 87.9603 212.5 85 C 207.537 84.3277 203.703 86.161 201 90.5 C 193.429 103.758 193.763 116.758 202 129.5 C 204.84 132.343 208.173 134.343 212 135.5 C 217.766 134.527 223.6 133.527 229.5 132.5 C 229.348 137.184 227.681 141.517 224.5 145.5 C 216.739 149.571 209.073 149.405 201.5 145 C 189.284 136.406 182.951 124.573 182.5 109.5 C 182.794 99.0214 185.628 89.3547 191 80.5 C 195.946 75.4485 201.779 72.1152 208.5 70.5 Z" stroke-linecap="round" />
</g>
		<g transform="matrix(1 0 0 1 203.36 -2.55)"  >
<path style="stroke: none; stroke-width: 1; stroke-dasharray: none; stroke-linecap: butt; stroke-dashoffset: 0; stroke-linejoin: miter; stroke-miterlimit: 4; fill: rgb(131,166,100); fill-rule: evenodd; opacity: 1;" vector-effect="non-scaling-stroke"  transform=" translate(-783.09, -107.46)" d="M 778.5 70.5 C 786.961 70.1194 795.294 70.9527 803.5 73 C 814.299 79.4433 818.466 88.9433 816 101.5 C 814.703 108.798 810.536 113.631 803.5 116 C 797.049 117.391 790.716 118.891 784.5 120.5 C 792.293 124.23 799.959 128.23 807.5 132.5 C 808.501 136.347 810.168 139.847 812.5 143 C 795.092 138.795 779.759 130.629 766.5 118.5 C 765.749 119.376 765.249 120.376 765 121.5 C 764.667 127.5 764.333 133.5 764 139.5 C 763.252 141.332 762.252 142.999 761 144.5 C 759.333 142.833 757.667 141.167 756 139.5 C 755.333 126.833 755.333 114.167 756 101.5 C 756.528 97.0566 757.528 92.7232 759 88.5 C 761.5 90.5363 764.167 90.8696 767 89.5 C 767.517 98.1005 767.017 106.601 765.5 115 C 765.833 115.167 766.167 115.333 766.5 115.5 C 767.711 113.578 769.044 111.745 770.5 110 C 779.272 108.919 787.939 108.253 796.5 108 C 803.007 106.531 806.341 102.364 806.5 95.5 C 805.721 89.1086 802.388 84.6086 796.5 82 C 782.344 81.1256 768.344 81.7923 754.5 84 C 757.3 82.5153 759.966 80.8486 762.5 79 C 758.167 78.6667 753.833 78.3333 749.5 78 C 752.215 76.0922 755.215 74.7589 758.5 74 C 765.314 72.8643 771.981 71.6976 778.5 70.5 Z" stroke-linecap="round" />
</g>
		<g transform="matrix(1 0 0 1 -190.99 2.53)"  >
<path style="stroke: none; stroke-width: 1; stroke-dasharray: none; stroke-linecap: butt; stroke-dashoffset: 0; stroke-linejoin: miter; stroke-miterlimit: 4; fill: rgb(131,166,100); fill-rule: evenodd; opacity: 0.57;" vector-effect="non-scaling-stroke"  transform=" translate(-388.75, -112.53)" d="M 408.5 71.5 C 412.417 76.9953 415.583 82.9953 418 89.5 C 422.265 101.297 425.932 113.297 429 125.5 C 428.306 134.788 427.806 144.122 427.5 153.5 C 426.325 153.719 425.325 153.386 424.5 152.5 C 422.06 147.953 419.893 143.287 418 138.5 C 414.309 122.402 410.309 106.402 406 90.5 C 402.922 96.9913 399.588 103.325 396 109.5 C 391.447 116.617 386.113 116.951 380 110.5 C 378.333 106.5 376.667 102.5 375 98.5 C 371.758 113.394 366.258 127.394 358.5 140.5 C 357.675 141.386 356.675 141.719 355.5 141.5 C 356.014 139.488 356.18 137.488 356 135.5 C 353.993 138.336 351.826 141.003 349.5 143.5 C 348.348 140.894 348.182 138.227 349 135.5 C 352.673 124.157 356.34 112.824 360 101.5 C 361.077 94.7816 362.41 88.1149 364 81.5 C 367.164 79.1119 370.664 77.9453 374.5 78 C 380.439 84.0435 385.273 90.8768 389 98.5 C 392.195 91.2471 395.195 83.9138 398 76.5 C 398.745 75.0096 399.912 74.0096 401.5 73.5 C 404.029 73.0711 406.362 72.4045 408.5 71.5 Z" stroke-linecap="round" />
</g>
		<g transform="matrix(1 0 0 1 450.27 -3)"  >
<path style="stroke: none; stroke-width: 1; stroke-dasharray: none; stroke-linecap: butt; stroke-dashoffset: 0; stroke-linejoin: miter; stroke-miterlimit: 4; fill: rgb(131,166,100); fill-rule: evenodd; opacity: 1;" vector-effect="non-scaling-stroke"  transform=" translate(-1030, -107)" d="M 1024.5 71.5 C 1027.52 72.3406 1030.52 73.3406 1033.5 74.5 C 1034.95 85.4512 1035.95 96.4512 1036.5 107.5 C 1035.78 110.247 1035.78 112.914 1036.5 115.5 C 1035.6 115.669 1034.6 116.002 1033.5 116.5 C 1035.07 124.372 1034.41 132.039 1031.5 139.5 C 1029.5 140.5 1027.5 141.5 1025.5 142.5 C 1024.91 142.291 1024.41 141.957 1024 141.5 C 1023.92 132.891 1024.76 124.391 1026.5 116 C 1025.87 104.196 1024.87 92.1955 1023.5 80 C 1023.8 77.1523 1024.13 74.3189 1024.5 71.5 Z" stroke-linecap="round" />
</g>
		<g transform="matrix(1 0 0 1 -372.98 -0.46)"  >
<path style="stroke: none; stroke-width: 1; stroke-dasharray: none; stroke-linecap: butt; stroke-dashoffset: 0; stroke-linejoin: miter; stroke-miterlimit: 4; fill: rgb(131,166,100); fill-rule: evenodd; opacity: 1;" vector-effect="non-scaling-stroke"  transform=" translate(-206.75, -109.54)" d="M 207.5 72.5 C 216.723 72.4449 224.057 76.1116 229.5 83.5 C 229.333 83.8333 229.167 84.1667 229 84.5 C 227.511 82.6682 225.678 81.8348 223.5 82 C 225.145 85.0985 226.312 88.2651 227 91.5 C 221.563 86.8613 215.396 84.028 208.5 83 C 201.836 86.0121 197.669 91.1788 196 98.5 C 192.783 109.997 194.45 120.664 201 130.5 C 206.146 137.11 212.479 138.777 220 135.5 C 222.833 136.87 225.5 136.536 228 134.5 C 226.981 143.166 221.981 147.166 213 146.5 C 208.864 146.344 205.031 145.177 201.5 143 C 184.253 128.179 179.753 110.012 188 88.5 C 192.119 80.1997 198.619 74.8663 207.5 72.5 Z" stroke-linecap="round" />
</g>
		<g transform="matrix(1 0 0 1 511.81 2)"  >
<path style="stroke: none; stroke-width: 1; stroke-dasharray: none; stroke-linecap: butt; stroke-dashoffset: 0; stroke-linejoin: miter; stroke-miterlimit: 4; fill: rgb(131,166,100); fill-rule: evenodd; opacity: 0.6;" vector-effect="non-scaling-stroke"  transform=" translate(-1091.54, -112)" d="M 1075.5 72.5 C 1077.83 73.6546 1078.99 75.6546 1079 78.5 C 1079.83 98.4931 1080.33 118.493 1080.5 138.5 C 1090.5 137.999 1100.5 137.833 1110.5 138 C 1113.1 140.094 1115.1 142.594 1116.5 145.5 C 1114.89 147.981 1112.56 149.481 1109.5 150 C 1097.17 152 1084.83 152 1072.5 150 C 1071.21 148.59 1070.05 147.09 1069 145.5 C 1066.71 124.219 1066.04 102.885 1067 81.5 C 1067.37 73.8642 1069.04 73.5308 1072 80.5 C 1073.45 77.9289 1074.62 75.2622 1075.5 72.5 Z" stroke-linecap="round" />
</g>
		<g transform="matrix(1 0 0 1 -456.72 -34.5)"  >
<path style="stroke: none; stroke-width: 1; stroke-dasharray: none; stroke-linecap: butt; stroke-dashoffset: 0; stroke-linejoin: miter; stroke-miterlimit: 4; fill: rgb(131,166,100); fill-rule: evenodd; opacity: 0.54;" vector-effect="non-scaling-stroke"  transform=" translate(-123.01, -75.5)" d="M 124.5 87.5 C 120.21 96.4568 113.543 103.123 104.5 107.5 C 103.386 106.277 103.219 104.944 104 103.5 C 120.474 88.3106 131.141 69.644 136 47.5 C 137.376 43.8951 139.542 42.7285 142.5 44 C 139.392 58.5962 134.225 72.4296 127 85.5 C 126.292 86.3805 125.458 87.0472 124.5 87.5 Z" stroke-linecap="round" />
</g>
		<g transform="matrix(1 0 0 1 -457.48 -35)"  >
<path style="stroke: none; stroke-width: 1; stroke-dasharray: none; stroke-linecap: butt; stroke-dashoffset: 0; stroke-linejoin: miter; stroke-miterlimit: 4; fill: rgb(131,166,100); fill-rule: evenodd; opacity: 1;" vector-effect="non-scaling-stroke"  transform=" translate(-122.25, -75)" d="M 124.5 87.5 C 119.055 93.8736 113.055 99.7069 106.5 105 C 105.833 105.667 105.167 105.667 104.5 105 C 121.136 89.6523 131.97 70.8189 137 48.5 C 137.615 46.8839 138.615 45.5505 140 44.5 C 137.519 59.7747 132.352 74.108 124.5 87.5 Z" stroke-linecap="round" />
</g>
		<g transform="matrix(1 0 0 1 -190.98 1.98)"  >
<path style="stroke: none; stroke-width: 1; stroke-dasharray: none; stroke-linecap: butt; stroke-dashoffset: 0; stroke-linejoin: miter; stroke-miterlimit: 4; fill: rgb(131,166,100); fill-rule: evenodd; opacity: 1;" vector-effect="non-scaling-stroke"  transform=" translate(-388.75, -111.99)" d="M 407.5 73.5 C 408.376 73.3691 409.043 73.7025 409.5 74.5 C 417.564 90.3592 423.231 107.026 426.5 124.5 C 422.861 125.268 423.194 125.934 427.5 126.5 C 427.542 134.688 426.709 142.688 425 150.5 C 421.885 145.156 419.552 139.489 418 133.5 C 415.539 122.859 413.205 112.192 411 101.5 C 409.897 96.6284 408.23 91.9617 406 87.5 C 402.603 94.6263 398.937 101.626 395 108.5 C 393.938 111.064 392.104 112.731 389.5 113.5 C 386.934 112.632 384.434 111.632 382 110.5 C 379.595 105.114 377.095 99.7808 374.5 94.5 C 371.574 108.773 366.741 122.44 360 135.5 C 359.085 136.328 358.419 137.328 358 138.5 C 357.833 137.833 357.667 137.167 357.5 136.5 C 358.553 133.869 359.053 131.202 359 128.5 C 356 132.833 353 137.167 350 141.5 C 349.927 138.842 350.26 136.176 351 133.5 C 357.36 116.921 362.193 99.9214 365.5 82.5 C 368.079 81.2939 370.579 79.9606 373 78.5 C 379.577 85.3281 384.911 92.9947 389 101.5 C 392.667 93.1667 396.333 84.8333 400 76.5 C 402.567 75.4131 405.067 74.4131 407.5 73.5 Z" stroke-linecap="round" />
</g>
		<g transform="matrix(1 0 0 1 -99.7 0.89)"  >
<path style="stroke: none; stroke-width: 1; stroke-dasharray: none; stroke-linecap: butt; stroke-dashoffset: 0; stroke-linejoin: miter; stroke-miterlimit: 4; fill: rgb(131,166,100); fill-rule: evenodd; opacity: 0.57;" vector-effect="non-scaling-stroke"  transform=" translate(-480.03, -110.89)" d="M 468.5 73.5 C 479.736 73.8113 490.903 74.8113 502 76.5 C 503.257 76.8499 503.591 77.5165 503 78.5 C 501.581 79.4601 500.081 80.2935 498.5 81 C 500.249 82.2915 502.082 83.4582 504 84.5 C 504.483 85.448 504.649 86.448 504.5 87.5 C 493.156 88.7829 481.822 88.7829 470.5 87.5 C 470.002 92.1522 469.669 96.8189 469.5 101.5 C 478.018 101.129 486.351 102.129 494.5 104.5 C 495.041 109.449 494.208 114.116 492 118.5 C 489.75 117.292 487.583 115.959 485.5 114.5 C 480.199 114.323 474.866 114.657 469.5 115.5 C 469.022 122.085 470.355 128.252 473.5 134 C 480.843 134.204 488.176 134.204 495.5 134 C 505.149 138.394 504.815 142.06 494.5 145 C 486.704 148.557 478.704 149.224 470.5 147 C 467.333 143.833 464.167 140.667 461 137.5 C 459.375 133.668 458.375 129.668 458 125.5 C 457.224 115.801 456.391 106.134 455.5 96.5 C 456.041 90.0619 457.207 83.7285 459 77.5 C 461.888 75.2876 465.055 73.9543 468.5 73.5 Z" stroke-linecap="round" />
</g>
		<g transform="matrix(1 0 0 1 -23.3 0.31)"  >
<path style="stroke: none; stroke-width: 1; stroke-dasharray: none; stroke-linecap: butt; stroke-dashoffset: 0; stroke-linejoin: miter; stroke-miterlimit: 4; fill: rgb(131,166,100); fill-rule: evenodd; opacity: 0.55;" vector-effect="non-scaling-stroke"  transform=" translate(-556.43, -110.31)" d="M 547.5 73.5 C 554.987 73.0582 562.32 73.8916 569.5 76 C 572.783 77.5605 575.617 79.7272 578 82.5 C 578.688 83.3317 578.521 83.9984 577.5 84.5 C 575.902 83.5153 574.235 83.3486 572.5 84 C 574.543 85.708 576.21 87.708 577.5 90 C 568.935 88.3736 560.268 87.3736 551.5 87 C 545.713 86.7043 542.713 89.371 542.5 95 C 554.896 99.5151 567.23 104.182 579.5 109 C 592.722 120.538 592.722 131.872 579.5 143 C 564.726 147.358 549.726 148.358 534.5 146 C 531.612 142.848 527.945 141.348 523.5 141.5 C 523.281 140.325 523.614 139.325 524.5 138.5 C 528.523 136.103 532.856 134.603 537.5 134 C 548.833 133.667 560.167 133.333 571.5 133 C 574.5 131.333 576.833 129 578.5 126 C 577.257 124.846 576.257 123.512 575.5 122 C 566.445 118.982 557.445 115.982 548.5 113 C 531.785 108.73 526.285 98.563 532 82.5 C 536.274 77.7854 541.441 74.7854 547.5 73.5 Z" stroke-linecap="round" />
</g>
		<g transform="matrix(1 0 0 1 383.22 0.24)"  >
<path style="stroke: none; stroke-width: 1; stroke-dasharray: none; stroke-linecap: butt; stroke-dashoffset: 0; stroke-linejoin: miter; stroke-miterlimit: 4; fill: rgb(131,166,100); fill-rule: evenodd; opacity: 0.57;" vector-effect="non-scaling-stroke"  transform=" translate(-962.95, -110.24)" d="M 954.5 73.5 C 965.336 72.6663 975.169 75.3329 984 81.5 C 984.167 81.8333 984.333 82.1667 984.5 82.5 C 978.224 82.537 977.39 84.2037 982 87.5 C 982.781 88.9437 982.614 90.277 981.5 91.5 C 972.532 87.0028 963.199 85.8362 953.5 88 C 946.894 91.794 947.227 95.1274 954.5 98 C 966.421 100.971 977.754 105.304 988.5 111 C 999.434 121.808 999.101 132.141 987.5 142 C 983.354 143.937 979.021 145.271 974.5 146 C 964.511 147 954.511 147.333 944.5 147 C 939.731 144.282 934.731 142.115 929.5 140.5 C 929.281 139.325 929.614 138.325 930.5 137.5 C 933.07 136.366 935.736 135.532 938.5 135 C 951.135 133.845 963.801 133.179 976.5 133 C 981.309 132.234 983.976 129.401 984.5 124.5 C 981.632 122.468 978.632 120.635 975.5 119 C 967.247 116.415 958.914 114.082 950.5 112 C 936.213 106.474 932.046 96.6411 938 82.5 C 942.512 77.4974 948.012 74.4974 954.5 73.5 Z" stroke-linecap="round" />
</g>
		<g transform="matrix(1 0 0 1 -289.24 2)"  >
<path style="stroke: none; stroke-width: 1; stroke-dasharray: none; stroke-linecap: butt; stroke-dashoffset: 0; stroke-linejoin: miter; stroke-miterlimit: 4; fill: rgb(131,166,100); fill-rule: evenodd; opacity: 0.57;" vector-effect="non-scaling-stroke"  transform=" translate(-290.48, -112)" d="M 273.5 75.5 C 274.474 78.2979 275.14 81.2979 275.5 84.5 C 273.012 97.0661 272.179 109.733 273 122.5 C 275.889 131.374 282.056 136.04 291.5 136.5 C 298.89 135.894 304.057 132.228 307 125.5 C 309.73 118.249 311.23 110.749 311.5 103 C 310.414 98.2081 310.247 93.3748 311 88.5 C 313.302 85.1128 315.135 81.4461 316.5 77.5 C 318.146 78.7786 319.313 80.4453 320 82.5 C 324.897 102.331 322.897 121.331 314 139.5 C 311.079 143.092 307.579 145.925 303.5 148 C 294.756 148.91 286.089 148.576 277.5 147 C 263.618 140.755 257.285 129.921 258.5 114.5 C 258.794 102.032 261.127 90.0321 265.5 78.5 C 267.015 80.5473 267.849 82.8807 268 85.5 C 269.227 81.7885 271.06 78.4552 273.5 75.5 Z" stroke-linecap="round" />
</g>
		<g transform="matrix(1 0 0 1 -100.19 0.89)"  >
<path style="stroke: none; stroke-width: 1; stroke-dasharray: none; stroke-linecap: butt; stroke-dashoffset: 0; stroke-linejoin: miter; stroke-miterlimit: 4; fill: rgb(131,166,100); fill-rule: evenodd; opacity: 1;" vector-effect="non-scaling-stroke"  transform=" translate(-479.53, -110.89)" d="M 464.5 75.5 C 476.581 75.204 488.581 76.0373 500.5 78 C 498.975 79.0086 497.308 79.5086 495.5 79.5 C 495.281 80.675 495.614 81.675 496.5 82.5 C 498.332 83.2485 499.999 84.2485 501.5 85.5 C 497.719 86.4519 493.886 87.1186 490 87.5 C 483.162 86.3034 476.328 86.3034 469.5 87.5 C 468.552 92.4351 468.219 97.4351 468.5 102.5 C 476.282 102.874 483.948 104.04 491.5 106 C 492.578 106.674 493.245 107.674 493.5 109 C 493.197 111.724 492.364 114.224 491 116.5 C 489.084 114.791 486.918 113.457 484.5 112.5 C 478.968 113.145 473.468 113.812 468 114.5 C 467.654 121.855 469.154 128.855 472.5 135.5 C 480.154 136.239 487.82 136.406 495.5 136 C 497.5 137.333 499.5 138.667 501.5 140 C 492.523 145.196 482.857 147.196 472.5 146 C 468.701 143.203 465.201 140.036 462 136.5 C 460.189 132.012 459.189 127.346 459 122.5 C 456.794 107.746 457.127 93.0793 460 78.5 C 461.409 77.2189 462.909 76.2189 464.5 75.5 Z" stroke-linecap="round" />
</g>
		<g transform="matrix(1 0 0 1 -23.19 0.47)"  >
<path style="stroke: none; stroke-width: 1; stroke-dasharray: none; stroke-linecap: butt; stroke-dashoffset: 0; stroke-linejoin: miter; stroke-miterlimit: 4; fill: rgb(131,166,100); fill-rule: evenodd; opacity: 1;" vector-effect="non-scaling-stroke"  transform=" translate(-556.54, -110.47)" d="M 546.5 75.5 C 551.844 75.334 557.177 75.5006 562.5 76 C 566.928 76.6967 570.928 78.3634 574.5 81 C 572.182 81.3423 570.015 80.8423 568 79.5 C 569.237 82.776 571.403 85.6094 574.5 88 C 569.409 87.7818 564.409 86.7818 559.5 85 C 553.815 84.0874 548.482 85.0874 543.5 88 C 539.854 93.0219 540.854 96.6885 546.5 99 C 556.106 102.486 565.773 105.819 575.5 109 C 586.459 114.562 589.959 123.062 586 134.5 C 579.97 141.85 572.136 145.35 562.5 145 C 553.5 145.667 544.5 145.667 535.5 145 C 533.301 141.276 529.967 139.61 525.5 140 C 529.093 137.542 533.093 136.208 537.5 136 C 548.5 135.667 559.5 135.333 570.5 135 C 574.78 133.053 578.113 130.053 580.5 126 C 579.21 123.708 577.543 121.708 575.5 120 C 564.138 115.382 552.471 111.382 540.5 108 C 529.378 100.67 527.712 91.6698 535.5 81 C 539.192 79.0578 542.858 77.2245 546.5 75.5 Z" stroke-linecap="round" />
</g>
		<g transform="matrix(1 0 0 1 383.28 0.27)"  >
<path style="stroke: none; stroke-width: 1; stroke-dasharray: none; stroke-linecap: butt; stroke-dashoffset: 0; stroke-linejoin: miter; stroke-miterlimit: 4; fill: rgb(131,166,100); fill-rule: evenodd; opacity: 1;" vector-effect="non-scaling-stroke"  transform=" translate(-963.01, -110.27)" d="M 952.5 75.5 C 962.497 74.2811 971.83 76.1144 980.5 81 C 978.069 81.2521 975.735 80.7521 973.5 79.5 C 974.751 82.3207 976.918 84.9874 980 87.5 C 980.667 88.1667 980.667 88.8333 980 89.5 C 970.814 84.2639 961.314 83.4306 951.5 87 C 946.803 90.3768 946.47 94.0434 950.5 98 C 959.997 101.792 969.663 105.125 979.5 108 C 992.686 112.758 997.186 121.592 993 134.5 C 988.531 140.107 982.698 143.273 975.5 144 C 964.869 145.443 954.202 145.776 943.5 145 C 939.779 142.473 935.779 140.473 931.5 139 C 936.334 137.269 941.334 136.269 946.5 136 C 956.167 135.667 965.833 135.333 975.5 135 C 982.655 133.854 985.822 129.687 985 122.5 C 982.417 121.126 979.917 119.626 977.5 118 C 968.651 114.877 959.651 112.21 950.5 110 C 935.813 103.684 932.813 94.0172 941.5 81 C 945.017 78.6738 948.683 76.8405 952.5 75.5 Z" stroke-linecap="round" />
</g>
		<g transform="matrix(1 0 0 1 511.94 2.51)"  >
<path style="stroke: none; stroke-width: 1; stroke-dasharray: none; stroke-linecap: butt; stroke-dashoffset: 0; stroke-linejoin: miter; stroke-miterlimit: 4; fill: rgb(131,166,100); fill-rule: evenodd; opacity: 1;" vector-effect="non-scaling-stroke"  transform=" translate(-1091.67, -112.51)" d="M 1075.5 75.5 C 1077.13 77.0261 1077.96 79.0261 1078 81.5 C 1078.5 101.164 1078.67 120.831 1078.5 140.5 C 1089.17 139.921 1099.83 139.755 1110.5 140 C 1112.54 141.708 1114.21 143.708 1115.5 146 C 1112.04 147.743 1108.38 148.743 1104.5 149 C 1094.21 149.402 1084.05 149.569 1074 149.5 C 1072.91 147.651 1071.57 145.984 1070 144.5 C 1067.5 122.182 1067.17 99.8488 1069 77.5 C 1069.91 79.6641 1071.08 81.6641 1072.5 83.5 C 1073.51 80.8172 1074.51 78.1505 1075.5 75.5 Z" stroke-linecap="round" />
</g>
		<g transform="matrix(1 0 0 1 296.61 5.6)"  >
<path style="stroke: none; stroke-width: 1; stroke-dasharray: none; stroke-linecap: butt; stroke-dashoffset: 0; stroke-linejoin: miter; stroke-miterlimit: 4; fill: rgb(131,166,100); fill-rule: evenodd; opacity: 0.57;" vector-effect="non-scaling-stroke"  transform=" translate(-876.35, -115.6)" d="M 850.5 149.5 C 850.719 150.675 850.386 151.675 849.5 152.5 C 848.682 149.893 848.182 147.226 848 144.5 C 845.993 147.336 843.826 150.003 841.5 152.5 C 840.439 143.061 842.106 134.061 846.5 125.5 C 845.15 124.05 843.484 123.383 841.5 123.5 C 841.393 121.097 842.393 119.264 844.5 118 C 842.393 116.736 841.393 114.903 841.5 112.5 C 845.154 112.058 848.821 111.724 852.5 111.5 C 855.402 101.696 859.902 92.6965 866 84.5 C 868.537 81.628 871.37 79.128 874.5 77 C 878.236 76.3901 881.903 76.7235 885.5 78 C 889.733 85.6337 893.567 93.467 897 101.5 C 901.242 115.228 906.076 128.728 911.5 142 C 910.899 143.605 909.899 144.938 908.5 146 C 909.783 148.795 909.783 151.628 908.5 154.5 C 901.118 148.247 896.118 140.414 893.5 131 C 888.91 131.543 884.243 131.543 879.5 131 C 873.043 128.838 866.543 128.004 860 128.5 C 857.481 135.93 854.315 142.93 850.5 149.5 Z M 877.5 90.5 C 883.208 100.094 887.874 110.26 891.5 121 C 883.608 119.027 875.608 117.027 867.5 115 C 866.572 114.612 865.905 113.945 865.5 113 C 868.881 105.065 872.881 97.5649 877.5 90.5 Z" stroke-linecap="round" />
</g>
		<g transform="matrix(1 0 0 1 -289.19 2.74)"  >
<path style="stroke: none; stroke-width: 1; stroke-dasharray: none; stroke-linecap: butt; stroke-dashoffset: 0; stroke-linejoin: miter; stroke-miterlimit: 4; fill: rgb(131,166,100); fill-rule: evenodd; opacity: 1;" vector-effect="non-scaling-stroke"  transform=" translate(-290.54, -112.74)" d="M 272.5 78.5 C 273.163 80.6413 273.497 82.9746 273.5 85.5 C 272.706 94.6888 271.706 103.855 270.5 113 C 270.856 132.707 280.523 140.374 299.5 136 C 302.667 134.167 305.167 131.667 307 128.5 C 309.752 123.162 311.418 117.495 312 111.5 C 312.414 104.143 312.414 96.8097 312 89.5 C 314.613 86.6755 316.279 83.3422 317 79.5 C 324.267 99.7593 322.934 119.426 313 138.5 C 310.463 141.372 307.63 143.872 304.5 146 C 268.969 151.134 254.469 135.967 261 100.5 C 262.169 93.97 263.835 87.6367 266 81.5 C 266.186 83.9005 266.686 86.2338 267.5 88.5 C 269.178 85.1447 270.844 81.8113 272.5 78.5 Z" stroke-linecap="round" />
</g>
		<g transform="matrix(1 0 0 1 113.23 4.82)"  >
<path style="stroke: none; stroke-width: 1; stroke-dasharray: none; stroke-linecap: butt; stroke-dashoffset: 0; stroke-linejoin: miter; stroke-miterlimit: 4; fill: rgb(131,166,100); fill-rule: evenodd; opacity: 0.58;" vector-effect="non-scaling-stroke"  transform=" translate(-692.96, -114.82)" d="M 683.5 78.5 C 692.685 77.3766 701.352 78.8766 709.5 83 C 718.183 90.9948 719.683 100.161 714 110.5 C 712.457 112.378 710.624 113.878 708.5 115 C 722.288 118.343 727.122 126.843 723 140.5 C 718.211 146.981 711.711 150.481 703.5 151 C 696.167 151.667 688.833 151.667 681.5 151 C 677.696 148.695 674.03 146.195 670.5 143.5 C 669.167 142.5 669.167 141.5 670.5 140.5 C 671.914 139.376 673.414 138.376 675 137.5 C 675.582 124.964 675.082 112.464 673.5 100 C 673.544 98.2358 673.878 96.5691 674.5 95 C 671.774 94.8184 669.107 94.3184 666.5 93.5 C 667.779 91.8539 669.445 90.6872 671.5 90 C 668.183 89.5017 664.85 89.335 661.5 89.5 C 661.561 87.4078 662.561 85.9078 664.5 85 C 670.68 82.0477 677.013 79.8811 683.5 78.5 Z M 686.5 91.5 C 691.499 92.1238 696.499 92.9571 701.5 94 C 704.954 97.0434 705.454 100.543 703 104.5 C 700.149 110.19 695.482 112.856 689 112.5 C 688.778 116.182 689.111 119.848 690 123.5 C 692.124 124.227 694.291 124.894 696.5 125.5 C 697.478 125.023 698.311 124.357 699 123.5 C 705.991 123.8 710.824 127.3 713.5 134 C 710.223 136.315 706.556 137.649 702.5 138 C 697.511 138.499 692.511 138.666 687.5 138.5 C 687.753 122.809 687.42 107.142 686.5 91.5 Z" stroke-linecap="round" />
</g>
		<g transform="matrix(1 0 0 1 296.02 5.5)"  >
<path style="stroke: none; stroke-width: 1; stroke-dasharray: none; stroke-linecap: butt; stroke-dashoffset: 0; stroke-linejoin: miter; stroke-miterlimit: 4; fill: rgb(131,166,100); fill-rule: evenodd; opacity: 1;" vector-effect="non-scaling-stroke"  transform=" translate(-875.75, -115.5)" d="M 850.5 149.5 C 849.186 147.105 849.186 144.605 850.5 142 C 850 141.5 849.5 141 849 140.5 C 847.056 144.11 844.723 147.443 842 150.5 C 842.322 142.039 844.156 133.873 847.5 126 C 847.401 123.452 846.068 121.952 843.5 121.5 C 846.081 119.326 846.081 117.16 843.5 115 C 846.561 113.884 849.728 113.051 853 112.5 C 857.019 99.1801 864.186 88.0134 874.5 79 C 878.829 77.8485 882.662 78.6819 886 81.5 C 895.305 100.913 903.138 120.913 909.5 141.5 C 907.393 144.688 907.06 148.022 908.5 151.5 C 908.333 151.833 908.167 152.167 908 152.5 C 906.333 150.833 904.667 149.167 903 147.5 C 899.465 141.189 896.131 134.856 893 128.5 C 890.723 129.37 888.389 130.037 886 130.5 C 878.032 128.675 870.032 127.008 862 125.5 C 860.674 125.755 859.674 126.422 859 127.5 C 855.869 134.754 853.036 142.087 850.5 149.5 Z M 877.5 90.5 C 872.881 97.5649 868.881 105.065 865.5 113 C 865.905 113.945 866.572 114.612 867.5 115 C 875.608 117.027 883.608 119.027 891.5 121 C 887.874 110.26 883.208 100.094 877.5 90.5 Z" stroke-linecap="round" />
</g>
		<g transform="matrix(1 0 0 1 114.36 4.79)"  >
<path style="stroke: none; stroke-width: 1; stroke-dasharray: none; stroke-linecap: butt; stroke-dashoffset: 0; stroke-linejoin: miter; stroke-miterlimit: 4; fill: rgb(131,166,100); fill-rule: evenodd; opacity: 1;" vector-effect="non-scaling-stroke"  transform=" translate(-694.09, -114.79)" d="M 684.5 80.5 C 693.358 79.4016 701.692 80.9016 709.5 85 C 719.399 95.3875 718.733 104.887 707.5 113.5 C 706.614 114.325 706.281 115.325 706.5 116.5 C 718.802 117.63 724.302 124.297 723 136.5 C 720.512 142.521 716.012 146.354 709.5 148 C 700.213 149.483 690.879 149.816 681.5 149 C 677.89 147.056 674.557 144.723 671.5 142 C 673.09 140.954 674.59 139.787 676 138.5 C 676.884 134.887 677.384 131.22 677.5 127.5 C 676.135 116.208 675.302 104.875 675 93.5 C 673.278 93.0385 671.445 92.8718 669.5 93 C 672.127 91.6897 674.46 90.023 676.5 88 C 661.148 88.2678 661.148 86.2678 676.5 82 C 679.365 81.8171 682.031 81.3171 684.5 80.5 Z M 686.5 91.5 C 687.42 107.142 687.753 122.809 687.5 138.5 C 692.511 138.666 697.511 138.499 702.5 138 C 706.556 137.649 710.223 136.315 713.5 134 C 710.824 127.3 705.991 123.8 699 123.5 C 698.311 124.357 697.478 125.023 696.5 125.5 C 694.291 124.894 692.124 124.227 690 123.5 C 689.111 119.848 688.778 116.182 689 112.5 C 695.482 112.856 700.149 110.19 703 104.5 C 705.454 100.543 704.954 97.0434 701.5 94 C 696.499 92.9571 691.499 92.1238 686.5 91.5 Z" stroke-linecap="round" />
</g>
		<g transform="matrix(1 0 0 1 298.77 -4.02)"  >
<path style="stroke: none; stroke-width: 1; stroke-dasharray: none; stroke-linecap: butt; stroke-dashoffset: 0; stroke-linejoin: miter; stroke-miterlimit: 4; fill: rgb(131,166,100); fill-rule: evenodd; opacity: 0.59;" vector-effect="non-scaling-stroke"  transform=" translate(-878.5, -105.99)" d="M 877.5 88.5 C 878.376 88.3691 879.043 88.7025 879.5 89.5 C 884.949 100.184 889.616 111.184 893.5 122.5 C 893 122.833 892.5 123.167 892 123.5 C 882.938 120.61 873.772 118.11 864.5 116 C 864.043 115.586 863.709 115.086 863.5 114.5 C 867.147 105.201 871.814 96.5339 877.5 88.5 Z M 877.5 90.5 C 872.881 97.5649 868.881 105.065 865.5 113 C 865.905 113.945 866.572 114.612 867.5 115 C 875.608 117.027 883.608 119.027 891.5 121 C 887.874 110.26 883.208 100.094 877.5 90.5 Z" stroke-linecap="round" />
</g>
		<g transform="matrix(1 0 0 1 121.02 5.25)"  >
<path style="stroke: none; stroke-width: 1; stroke-dasharray: none; stroke-linecap: butt; stroke-dashoffset: 0; stroke-linejoin: miter; stroke-miterlimit: 4; fill: rgb(131,166,100); fill-rule: evenodd; opacity: 0.6;" vector-effect="non-scaling-stroke"  transform=" translate(-700.75, -115.25)" d="M 685.5 90.5 C 706.138 88.9552 710.472 96.4552 698.5 113 C 695.5 113.333 692.5 113.667 689.5 114 C 690.444 116.719 690.777 119.552 690.5 122.5 C 692.591 122.318 694.591 122.652 696.5 123.5 C 697.833 122.5 699.167 121.5 700.5 120.5 C 701.386 121.325 701.719 122.325 701.5 123.5 C 707.665 123.638 711.998 126.638 714.5 132.5 C 715.086 132.291 715.586 131.957 716 131.5 C 714.876 135.61 712.043 138.11 707.5 139 C 700.82 140.413 694.154 140.58 687.5 139.5 C 686.663 123.169 685.996 106.836 685.5 90.5 Z M 686.5 91.5 C 687.42 107.142 687.753 122.809 687.5 138.5 C 692.511 138.666 697.511 138.499 702.5 138 C 706.556 137.649 710.223 136.315 713.5 134 C 710.824 127.3 705.991 123.8 699 123.5 C 698.311 124.357 697.478 125.023 696.5 125.5 C 694.291 124.894 692.124 124.227 690 123.5 C 689.111 119.848 688.778 116.182 689 112.5 C 695.482 112.856 700.149 110.19 703 104.5 C 705.454 100.543 704.954 97.0434 701.5 94 C 696.499 92.9571 691.499 92.1238 686.5 91.5 Z" stroke-linecap="round" />
</g>
		<g transform="matrix(1 0 0 1 -487.46 28.49)"  >
<path style="stroke: none; stroke-width: 1; stroke-dasharray: none; stroke-linecap: butt; stroke-dashoffset: 0; stroke-linejoin: miter; stroke-miterlimit: 4; fill: rgb(131,166,100); fill-rule: evenodd; opacity: 1;" vector-effect="non-scaling-stroke"  transform=" translate(-92.27, -138.49)" d="M 61.5 151.5 C 67.0172 140.459 72.0172 129.126 76.5 117.5 C 84.5277 117.831 92.5277 117.498 100.5 116.5 C 103.189 111.974 107.189 109.141 112.5 108 C 116.994 107.168 119.828 109.002 121 113.5 C 123.577 122.052 125.244 130.718 126 139.5 C 122.867 142.867 119.534 143.201 116 140.5 C 114.129 134.553 112.462 128.553 111 122.5 C 102.756 127.371 93.9227 130.704 84.5 132.5 C 79.4989 145.016 73.8322 157.183 67.5 169 C 60.1671 169.997 57.3338 166.83 59 159.5 C 60.1356 156.904 60.969 154.237 61.5 151.5 Z" stroke-linecap="round" />
</g>
		<g transform="matrix(1 0 0 1 -481.14 43.5)"  >
<path style="stroke: none; stroke-width: 1; stroke-dasharray: none; stroke-linecap: butt; stroke-dashoffset: 0; stroke-linejoin: miter; stroke-miterlimit: 4; fill: rgb(131,166,100); fill-rule: evenodd; opacity: 0.61;" vector-effect="non-scaling-stroke"  transform=" translate(-98.59, -153.5)" d="M 99.5 130.5 C 101.484 145.464 102.151 160.797 101.5 176.5 C 99.5 176.5 97.5 176.5 95.5 176.5 C 95.3334 163.163 95.5001 149.829 96 136.5 C 96.6077 134.846 97.1077 133.179 97.5 131.5 C 98.4916 131.672 99.1583 131.338 99.5 130.5 Z" stroke-linecap="round" />
</g>
		<g transform="matrix(1 0 0 1 -480.75 44)"  >
<path style="stroke: none; stroke-width: 1; stroke-dasharray: none; stroke-linecap: butt; stroke-dashoffset: 0; stroke-linejoin: miter; stroke-miterlimit: 4; fill: rgb(131,166,100); fill-rule: evenodd; opacity: 1;" vector-effect="non-scaling-stroke"  transform=" translate(-98.97, -154)" d="M 98.5 133.5 C 99.29 134.609 99.79 135.942 100 137.5 C 100.5 149.829 100.667 162.162 100.5 174.5 C 99.5 174.5 98.5 174.5 97.5 174.5 C 97.1853 160.754 97.5187 147.088 98.5 133.5 Z" stroke-linecap="round" />
</g>
</g>
</g>
<g transform="matrix(NaN NaN NaN NaN 0 0)"  >
<g style=""   >
</g>
</g>
</svg>